<?xml version="1.0" encoding="UTF-8"?>
<svg xmlns="http://www.w3.org/2000/svg" width="800px" height="800px" viewBox="0 0 368.38 113.39">
  <defs>
    <style>.cls-1{fill:#525349;}.cls-2{fill:#3fae2a;}.cls-3{fill:#2b5134;}</style>
  </defs>
  <title>efiwatt</title>
  <g id="Capa_2" data-name="Capa 2">
    <g id="Capa_1-2" data-name="Capa 1">
      <path class="cls-1" d="M27.79,40.2l5.59,17.33a1.1,1.1,0,0,0,2.08.49l8.11-16.23a1.1,1.1,0,0,0-1-1.59Z"></path>
      <path class="cls-1" d="M9.48,71.59,19.74,51.2,33.12,72.09a1.1,1.1,0,0,1-1.1,1.1H10.46A1.1,1.1,0,0,1,9.48,71.59Z"></path>
      <path class="cls-2" d="M10.88,112.1l9.39-56.31a5.5,5.5,0,0,1,5.42-4.59H52a1.1,1.1,0,0,1,.91,1.71l-40,60A1.1,1.1,0,0,1,10.88,112.1Z"></path>
      <path class="cls-3" d="M42.18,1.28,32.79,57.6a5.5,5.5,0,0,1-5.42,4.59H1.1a1.1,1.1,0,0,1-.91-1.71l40-60A1.1,1.1,0,0,1,42.18,1.28Z"></path>
      <path class="cls-3" d="M118.37,30.61a4.4,4.4,0,0,0,0-8.8H85.8a4.4,4.4,0,0,0-4.4,4.4v61a4.4,4.4,0,0,0,4.4,4.4h32.57a4.4,4.4,0,0,0,0-8.8H90.2V61.43h15a4.4,4.4,0,1,0,0-8.8h-15v-22Z"></path>
      <path class="cls-3" d="M178.42,21.81a4.4,4.4,0,0,0-4.4,4.4v61a4.4,4.4,0,0,0,8.8,0v-61A4.4,4.4,0,0,0,178.42,21.81Z"></path>
      <path class="cls-3" d="M162.07,21.81H134.62a4.4,4.4,0,0,0-4.4,4.4v61a4.4,4.4,0,0,0,8.8,0V61.43h15.39a4.4,4.4,0,1,0,0-8.8H139v-22h23.05a4.4,4.4,0,1,0,0-8.8Z"></path>
      <path class="cls-3" d="M256.76,22a4.4,4.4,0,0,0-5.4,3.09L238.85,70.91,229.33,38a4.4,4.4,0,0,0-8.45,0l-9.5,32.88L198.87,25a4.4,4.4,0,0,0-8.49,2.32l16.63,61a4.4,4.4,0,0,0,4.21,3.24h0a4.4,4.4,0,0,0,4.23-3.18l9.63-33.31,9.64,33.32A4.4,4.4,0,0,0,239,91.58h0a4.4,4.4,0,0,0,4.21-3.24l16.63-61A4.4,4.4,0,0,0,256.76,22Z"></path>
      <path class="cls-3" d="M282.25,24.87a4.4,4.4,0,0,0-8.38,0l-19.4,61a4.4,4.4,0,1,0,8.38,2.67l15.2-47.8,15.21,47.8a4.4,4.4,0,1,0,8.38-2.67Z"></path>
      <path class="cls-3" d="M364,21.81H298.85a4.4,4.4,0,1,0,0,8.8h13.61V87.18a4.4,4.4,0,0,0,8.8,0V30.61h20.06V87.18a4.4,4.4,0,0,0,8.8,0V30.61H364a4.4,4.4,0,1,0,0-8.8Z"></path>
    </g>
  </g>
</svg>
