<?xml version="1.0" encoding="UTF-8"?>
<svg id="d" xmlns="http://www.w3.org/2000/svg" width="800px" height="800px" viewBox="0 0 377.9 90.06">
    <defs>
    <style>.e{fill:#fff;stroke-width:0px;}</style>
    </defs><polygon class="e" points="60.13 14.92 75.21 20.88 60.22 60.08 60.13 14.92 60.13 14.92"/>
    <path class="e" d="m23.23,23.06c0,37.06,0,36.98,0,36.98l29.99,12.18V23.14l-15,32.8-15-32.89h0Z"/>
    <path class="e" d="m0,50.03C14.83,10.84,14.74,11.01,14.74,11.01l-.09,45.07L0,50.03h0Z"/>
    <polygon class="e" points="21.58 0 50.97 11.76 38.79 37.06 21.58 0 21.58 0"/>
    <path class="e" d="m86.65,6.94v61.89h14.6V6.94h-14.6Zm75.67,48.67c-1.65.74-3.67,1.29-6.15,1.75-2.48.37-4.96.64-7.53.64-7.07-.09-12.58-2.02-16.35-5.69-3.76-3.67-5.69-8.45-5.69-14.42.09-6.61,2.2-11.66,6.24-15.06,4.13-3.4,9.28-5.14,15.7-5.14,2.94,0,5.51.28,7.81.83,2.39.46,4.32,1.1,5.97,1.84l3.12-11.39c-1.47-.73-3.67-1.47-6.7-2.11-3.03-.64-6.61-1.01-10.84-1.01-6.98,0-13.32,1.38-18.83,4.04-5.51,2.66-9.83,6.43-13.04,11.3-3.12,4.96-4.78,10.84-4.87,17.63,0,5.97,1.38,11.2,4.04,15.89,2.66,4.68,6.61,8.36,11.94,11.11,5.23,2.66,11.75,4.04,19.56,4.13,4.32,0,7.99-.37,11.2-1.01,3.12-.64,5.33-1.29,6.8-2.02l-2.39-11.3Zm70.62,13.22h14.51l-3.21-61.89h-20.11l-7.16,19.93c-1.19,3.4-2.3,7.07-3.4,11.02-1.1,3.95-2.11,7.81-3.12,11.48h-.37c-.73-3.67-1.56-7.53-2.57-11.3-.92-3.86-1.93-7.53-2.94-11.02l-6.43-20.11h-20.66l-3.77,61.89h13.87l1.2-24.15c.18-4.22.37-8.63.55-13.41.09-4.78.27-9.37.46-13.96h.18c.92,4.32,1.84,8.72,2.94,13.13,1.01,4.41,2.11,8.72,3.21,12.76l7.26,24.61h11.57l8.36-24.79c1.38-4.13,2.75-8.36,4.13-12.76,1.38-4.41,2.57-8.72,3.77-12.95h.27c0,4.96.09,9.73.19,14.33.09,4.59.18,8.82.37,12.86l.92,24.33Zm61.89-16.53l5.51,16.53h16.16l-21.67-61.89h-19.65l-20.66,61.89h15.43l4.87-16.53h20.02Zm-17.72-10.74l4.23-13.22c.55-1.84,1.1-3.67,1.56-5.6.46-2.02,1.01-3.86,1.47-5.6h.18c.55,1.74,1.01,3.58,1.65,5.6.55,1.93,1.1,3.77,1.74,5.6l4.5,13.22h-15.34Zm48.12,27c1.65.27,3.86.46,6.61.64,2.76.28,5.97.37,9.83.37,6.43,0,11.75-.46,15.89-1.38,4.13-.92,7.44-2.3,9.83-4.04,2.11-1.56,3.76-3.49,5.05-5.69,1.29-2.3,2.02-4.87,2.02-7.81-.09-4.13-1.38-7.53-3.77-10.1-2.39-2.57-5.42-4.32-9-5.24v-.18c3.58-1.29,6.24-3.12,7.99-5.42,1.74-2.3,2.57-4.87,2.57-7.62-.09-3.12-.83-5.69-2.39-7.81-1.56-2.02-3.49-3.58-5.88-4.68-2.2-1.1-4.78-1.93-7.81-2.48-2.94-.46-6.7-.73-11.39-.73-3.95,0-7.71.18-11.29.46-3.58.27-6.34.55-8.27.92v60.79Zm14.51-51.15c.64-.18,1.47-.27,2.57-.37,1.01-.09,2.48-.09,4.32-.09,3.4,0,6.06.55,7.99,1.65,1.84,1.1,2.85,2.85,2.85,5.24s-1.01,4.04-3.03,5.33c-2.11,1.38-5.23,2.02-9.46,2.02h-5.23v-13.78Zm0,24.15h5.51c3.95,0,7.16.55,9.74,1.84,2.57,1.38,3.86,3.49,3.95,6.61-.09,3.22-1.38,5.51-3.86,6.89-2.48,1.29-5.51,2.02-9.09,1.93h-3.58c-1.01-.09-1.93-.18-2.66-.27v-16.99Z"/>
    <path class="e" d="m1.87,78.6v11.27H.42v-11.27h1.46Z"/>
    <path class="e" d="m4.76,89.88v-11.27h1.59l3.61,5.7c.84,1.32,1.49,2.51,2.02,3.66l.03-.02c-.13-1.51-.17-2.88-.17-4.63v-4.72h1.37v11.27h-1.47l-3.58-5.72c-.79-1.25-1.54-2.54-2.11-3.76l-.05.02c.08,1.42.12,2.78.12,4.65v4.82h-1.37Z"/>
    <path class="e" d="m15.92,88.1c.65.4,1.61.74,2.61.74,1.49,0,2.36-.79,2.36-1.92,0-1.05-.6-1.66-2.12-2.24-1.84-.65-2.98-1.61-2.98-3.2,0-1.76,1.46-3.06,3.65-3.06,1.15,0,1.99.27,2.49.55l-.4,1.19c-.37-.2-1.12-.54-2.14-.54-1.54,0-2.12.92-2.12,1.69,0,1.05.69,1.57,2.24,2.17,1.91.74,2.88,1.66,2.88,3.31,0,1.74-1.29,3.25-3.95,3.25-1.09,0-2.28-.32-2.88-.72l.37-1.22Z"/>
    <path class="e" d="m26.86,79.84h-3.43v-1.24h8.35v1.24h-3.45v10.04h-1.47v-10.04Z"/>
    <path class="e" d="m34.84,78.6v11.27h-1.46v-11.27h1.46Z"/>
    <path class="e" d="m39.87,79.84h-3.43v-1.24h8.35v1.24h-3.45v10.04h-1.47v-10.04Z"/>
    <path class="e" d="m47.85,78.6v6.67c0,2.53,1.12,3.6,2.63,3.6,1.67,0,2.74-1.1,2.74-3.6v-6.67h1.47v6.57c0,3.46-1.82,4.88-4.27,4.88-2.31,0-4.05-1.32-4.05-4.82v-6.64h1.47Z"/>
    <path class="e" d="m59.71,79.84h-3.43v-1.24h8.35v1.24h-3.45v10.04h-1.47v-10.04Z"/>
    <path class="e" d="m70.13,78.75c.89-.13,1.94-.23,3.09-.23,2.09,0,3.58.49,4.57,1.41,1,.92,1.59,2.22,1.59,4.05s-.57,3.35-1.62,4.38c-1.05,1.05-2.79,1.62-4.99,1.62-1.04,0-1.91-.05-2.64-.13v-11.09Zm1.46,9.97c.37.07.9.08,1.47.08,3.11,0,4.8-1.74,4.8-4.78.02-2.66-1.49-4.35-4.57-4.35-.75,0-1.32.07-1.71.15v8.9Z"/>
    <path class="e" d="m87.46,84.59h-4.38v4.07h4.88v1.22h-6.34v-11.27h6.09v1.22h-4.63v3.56h4.38v1.2Z"/>
    <path class="e" d="m101.98,89.51c-.54.27-1.61.54-2.98.54-3.18,0-5.57-2.01-5.57-5.7s2.39-5.92,5.89-5.92c1.41,0,2.29.3,2.68.5l-.35,1.19c-.55-.27-1.34-.47-2.28-.47-2.64,0-4.4,1.69-4.4,4.65,0,2.76,1.59,4.53,4.33,4.53.89,0,1.79-.18,2.38-.47l.3,1.15Z"/>
    <path class="e" d="m105.6,78.6v11.27h-1.46v-11.27h1.46Z"/>
    <path class="e" d="m114.34,84.59h-4.38v4.07h4.88v1.22h-6.34v-11.27h6.09v1.22h-4.63v3.56h4.38v1.2Zm-3.35-8.55l1.56,1.94h-1.2l-2.12-1.94h1.77Z"/>
    <path class="e" d="m117.08,89.88v-11.27h1.59l3.61,5.7c.84,1.32,1.49,2.51,2.02,3.66l.03-.02c-.13-1.51-.17-2.88-.17-4.63v-4.72h1.37v11.27h-1.47l-3.58-5.72c-.79-1.25-1.54-2.54-2.11-3.76l-.05.02c.08,1.42.12,2.78.12,4.65v4.82h-1.37Z"/>
    <path class="e" d="m136.31,89.51c-.54.27-1.61.54-2.98.54-3.18,0-5.57-2.01-5.57-5.7s2.39-5.92,5.89-5.92c1.41,0,2.29.3,2.68.5l-.35,1.19c-.55-.27-1.34-.47-2.28-.47-2.64,0-4.4,1.69-4.4,4.65,0,2.76,1.59,4.53,4.33,4.53.89,0,1.79-.18,2.38-.47l.3,1.15Z"/>
    <path class="e" d="m139.94,78.6v11.27h-1.46v-11.27h1.46Z"/>
    <path class="e" d="m144.66,86.33l-1.17,3.55h-1.51l3.83-11.27h1.76l3.85,11.27h-1.56l-1.2-3.55h-4Zm3.7-1.14l-1.1-3.25c-.25-.74-.42-1.41-.59-2.06h-.03c-.17.67-.35,1.35-.57,2.04l-1.1,3.26h3.4Z"/>
    <path class="e" d="m157.32,78.75c.89-.13,1.94-.23,3.09-.23,2.09,0,3.58.49,4.57,1.41,1,.92,1.59,2.22,1.59,4.05s-.57,3.35-1.62,4.38c-1.05,1.05-2.79,1.62-4.99,1.62-1.04,0-1.91-.05-2.64-.13v-11.09Zm1.46,9.97c.37.07.9.08,1.47.08,3.11,0,4.8-1.74,4.8-4.78.02-2.66-1.49-4.35-4.57-4.35-.75,0-1.32.07-1.71.15v8.9Z"/>
    <path class="e" d="m174.65,84.59h-4.38v4.07h4.88v1.22h-6.34v-11.27h6.09v1.22h-4.63v3.56h4.38v1.2Z"/>
    <path class="e" d="m190.79,84.93c-.08-1.57-.18-3.46-.17-4.87h-.05c-.38,1.32-.85,2.73-1.42,4.28l-1.99,5.47h-1.1l-1.82-5.37c-.54-1.59-.99-3.04-1.3-4.38h-.03c-.03,1.41-.12,3.3-.22,4.99l-.3,4.83h-1.39l.79-11.27h1.86l1.92,5.45c.47,1.39.85,2.63,1.14,3.8h.05c.28-1.14.69-2.38,1.19-3.8l2.01-5.45h1.86l.7,11.27h-1.42l-.28-4.95Z"/>
    <path class="e" d="m196.74,86.33l-1.17,3.55h-1.51l3.83-11.27h1.76l3.85,11.27h-1.56l-1.2-3.55h-4Zm3.7-1.14l-1.1-3.25c-.25-.74-.42-1.41-.59-2.06h-.03c-.17.67-.35,1.35-.57,2.04l-1.1,3.26h3.4Z"/>
    <path class="e" d="m206.36,79.84h-3.43v-1.24h8.35v1.24h-3.45v10.04h-1.47v-10.04Z"/>
    <path class="e" d="m218.72,84.59h-4.38v4.07h4.88v1.22h-6.34v-11.27h6.09v1.22h-4.63v3.56h4.38v1.2Z"/>
    <path class="e" d="m221.46,78.75c.74-.15,1.79-.23,2.79-.23,1.56,0,2.56.28,3.26.92.57.5.89,1.27.89,2.14,0,1.49-.94,2.48-2.12,2.88v.05c.87.3,1.39,1.1,1.66,2.28.37,1.57.64,2.66.87,3.09h-1.51c-.18-.32-.44-1.29-.75-2.69-.33-1.56-.94-2.14-2.26-2.19h-1.37v4.88h-1.45v-11.12Zm1.45,5.14h1.49c1.56,0,2.54-.85,2.54-2.14,0-1.45-1.05-2.09-2.59-2.11-.7,0-1.2.07-1.44.13v4.11Z"/>
    <path class="e" d="m232.27,78.6v11.27h-1.46v-11.27h1.46Z"/>
    <path class="e" d="m236.98,86.33l-1.17,3.55h-1.51l3.83-11.27h1.76l3.85,11.27h-1.56l-1.2-3.55h-4Zm3.7-1.14l-1.1-3.25c-.25-.74-.42-1.41-.59-2.06h-.03c-.17.67-.35,1.35-.57,2.04l-1.1,3.26h3.4Z"/>
    <path class="e" d="m245.75,78.6h1.45v10.05h4.82v1.22h-6.27v-11.27Z"/>
    <path class="e" d="m253.79,88.1c.65.4,1.61.74,2.61.74,1.49,0,2.36-.79,2.36-1.92,0-1.05-.6-1.66-2.12-2.24-1.84-.65-2.98-1.61-2.98-3.2,0-1.76,1.45-3.06,3.65-3.06,1.15,0,1.99.27,2.49.55l-.4,1.19c-.37-.2-1.12-.54-2.14-.54-1.54,0-2.12.92-2.12,1.69,0,1.05.69,1.57,2.24,2.17,1.91.74,2.88,1.66,2.88,3.31,0,1.74-1.29,3.25-3.95,3.25-1.09,0-2.28-.32-2.88-.72l.37-1.22Z"/>
    <path class="e" d="m266.49,78.75c.89-.13,1.94-.23,3.09-.23,2.09,0,3.58.49,4.57,1.41,1,.92,1.59,2.22,1.59,4.05s-.57,3.35-1.62,4.38c-1.05,1.05-2.79,1.62-4.98,1.62-1.04,0-1.91-.05-2.64-.13v-11.09Zm1.46,9.97c.37.07.9.08,1.47.08,3.11,0,4.8-1.74,4.8-4.78.02-2.66-1.49-4.35-4.57-4.35-.75,0-1.32.07-1.71.15v8.9Z"/>
    <path class="e" d="m283.82,84.59h-4.38v4.07h4.88v1.22h-6.34v-11.27h6.09v1.22h-4.63v3.56h4.38v1.2Z"/>
    <path class="e" d="m290.46,78.75c.64-.13,1.64-.23,2.66-.23,1.46,0,2.39.25,3.1.82.59.44.94,1.1.94,1.99,0,1.09-.72,2.04-1.91,2.48v.03c1.07.27,2.33,1.15,2.33,2.83,0,.97-.38,1.71-.95,2.26-.79.72-2.06,1.05-3.9,1.05-1,0-1.77-.07-2.26-.13v-11.09Zm1.45,4.62h1.32c1.54,0,2.44-.8,2.44-1.89,0-1.32-1-1.84-2.48-1.84-.67,0-1.05.05-1.29.1v3.63Zm0,5.4c.28.05.7.07,1.22.07,1.51,0,2.89-.55,2.89-2.19,0-1.54-1.32-2.17-2.91-2.17h-1.2v4.3Z"/>
    <path class="e" d="m301.7,86.33l-1.17,3.55h-1.51l3.83-11.27h1.76l3.85,11.27h-1.56l-1.2-3.55h-4Zm3.7-1.14l-1.1-3.25c-.25-.74-.42-1.41-.59-2.06h-.03c-.17.67-.35,1.35-.57,2.04l-1.1,3.26h3.4Z"/>
    <path class="e" d="m310.46,78.75c.74-.15,1.79-.23,2.79-.23,1.56,0,2.56.28,3.26.92.57.5.89,1.27.89,2.14,0,1.49-.94,2.48-2.12,2.88v.05c.87.3,1.39,1.1,1.66,2.28.37,1.57.64,2.66.87,3.09h-1.51c-.18-.32-.43-1.29-.75-2.69-.33-1.56-.94-2.14-2.26-2.19h-1.37v4.88h-1.46v-11.12Zm1.46,5.14h1.49c1.56,0,2.54-.85,2.54-2.14,0-1.45-1.05-2.09-2.59-2.11-.7,0-1.2.07-1.44.13v4.11Z"/>
    <path class="e" d="m327.74,89.51c-.54.27-1.61.54-2.98.54-3.18,0-5.57-2.01-5.57-5.7s2.39-5.92,5.89-5.92c1.41,0,2.29.3,2.68.5l-.35,1.19c-.55-.27-1.34-.47-2.28-.47-2.64,0-4.4,1.69-4.4,4.65,0,2.76,1.59,4.53,4.33,4.53.89,0,1.79-.18,2.38-.47l.3,1.15Z"/>
    <path class="e" d="m335.75,84.59h-4.38v4.07h4.88v1.22h-6.34v-11.27h6.09v1.22h-4.63v3.56h4.38v1.2Z"/>
    <path class="e" d="m338.49,78.6h1.45v10.05h4.82v1.22h-6.27v-11.27Z"/>
    <path class="e" d="m355.72,84.12c0,3.88-2.36,5.94-5.24,5.94s-5.07-2.31-5.07-5.72c0-3.58,2.22-5.92,5.24-5.92s5.07,2.36,5.07,5.7Zm-8.75.18c0,2.41,1.31,4.57,3.6,4.57s3.61-2.12,3.61-4.68c0-2.24-1.17-4.58-3.6-4.58s-3.61,2.23-3.61,4.7Z"/>
    <path class="e" d="m357.96,89.88v-11.27h1.59l3.61,5.7c.84,1.32,1.49,2.51,2.02,3.66l.03-.02c-.13-1.51-.17-2.88-.17-4.63v-4.72h1.37v11.27h-1.47l-3.58-5.72c-.79-1.25-1.54-2.54-2.11-3.76l-.05.02c.08,1.42.12,2.78.12,4.65v4.82h-1.37Z"/>
    <path class="e" d="m371.14,86.33l-1.17,3.55h-1.51l3.83-11.27h1.76l3.85,11.27h-1.56l-1.2-3.55h-4Zm3.7-1.14l-1.1-3.25c-.25-.74-.42-1.41-.59-2.06h-.03c-.17.67-.35,1.35-.57,2.04l-1.1,3.26h3.4Z"/>
</svg>